<?xml version="1.0" standalone="no"?>
<!DOCTYPE svg PUBLIC "-//W3C//DTD SVG 20010904//EN"
 "http://www.w3.org/TR/2001/REC-SVG-20010904/DTD/svg10.dtd">
<svg version="1.0" xmlns="http://www.w3.org/2000/svg"
 width="512.000000pt" height="512.000000pt" viewBox="0 0 512.000000 512.000000"
 preserveAspectRatio="xMidYMid meet">

<g transform="translate(0.000000,512.000000) scale(0.100000,-0.100000)"
fill="#000000" stroke="none">
<path d="M1925 5034 c-16 -2 -70 -9 -120 -15 -119 -15 -328 -68 -446 -115
-257 -101 -469 -238 -676 -437 l-103 -100 0 132 c0 170 -14 201 -89 201 -16 0
-37 -10 -49 -23 -21 -23 -22 -30 -22 -281 l0 -257 25 -24 c47 -48 62 -39 243
137 91 89 200 188 242 221 497 397 1151 511 1746 306 63 -21 127 -39 144 -39
62 0 94 84 48 127 -48 43 -279 115 -478 148 -91 15 -402 28 -465 19z"/>
<path d="M3172 4693 c-21 -8 -44 -62 -36 -86 4 -12 81 -98 173 -192 288 -294
416 -491 514 -790 131 -400 130 -793 -4 -1181 -21 -63 -39 -127 -39 -142 0
-64 87 -96 133 -49 29 28 99 236 126 372 77 384 44 796 -89 1127 -113 279
-239 475 -438 680 l-104 106 147 4 c140 3 148 4 166 27 26 32 25 82 -4 109
-23 21 -30 22 -278 21 -140 0 -260 -3 -267 -6z"/>
<path d="M989 4131 c-33 -34 -35 -49 -18 -186 55 -445 370 -814 804 -940 49
-14 119 -29 155 -33 l65 -7 3 -201 2 -200 -82 -11 c-334 -45 -583 -291 -630
-624 -12 -85 -7 -120 22 -149 20 -20 37 -20 770 -20 l751 0 24 25 c21 20 25
34 25 82 0 92 -26 191 -76 293 -40 81 -61 109 -139 186 -75 75 -107 99 -176
132 -92 44 -170 67 -266 78 l-63 7 0 197 c0 215 -2 210 58 210 71 0 241 52
357 110 362 179 591 518 622 921 7 98 0 125 -39 145 -25 13 -47 15 -112 9
-277 -23 -499 -122 -694 -309 -101 -97 -168 -186 -227 -301 l-44 -87 -40 79
c-171 338 -494 566 -866 612 -137 17 -152 15 -186 -18z m283 -160 c314 -81
571 -317 674 -618 29 -85 59 -221 51 -230 -9 -8 -145 22 -230 51 -301 103
-537 360 -618 674 -10 41 -19 90 -19 109 0 31 2 33 33 33 19 0 68 -9 109 -19z
m1761 -18 c-31 -218 -127 -405 -285 -559 -153 -149 -330 -237 -540 -267 -38
-6 -38 -6 -38 29 0 64 40 197 90 299 101 209 246 352 457 453 90 42 220 80
280 81 l42 1 -6 -37z m-700 -1581 c169 -62 308 -202 357 -361 11 -35 20 -69
20 -77 0 -12 -98 -14 -630 -14 -722 0 -649 -13 -606 104 32 88 76 154 150 223
75 70 141 107 238 133 62 17 98 19 243 16 142 -3 180 -7 228 -24z"/>
<path d="M258 3830 c-31 -24 -106 -241 -137 -395 -133 -658 78 -1349 553
-1815 42 -41 76 -78 76 -82 0 -5 -64 -8 -143 -8 -137 0 -144 -1 -165 -23 -29
-31 -29 -77 1 -105 23 -21 30 -22 284 -22 l262 0 20 26 c40 51 33 63 -152 252
-257 264 -379 439 -480 687 -84 206 -125 396 -134 625 -9 231 20 434 97 662
48 143 49 169 14 197 -33 26 -64 27 -96 1z"/>
<path d="M3471 1826 c-257 -253 -422 -372 -667 -477 -217 -93 -417 -137 -666
-146 -241 -9 -470 26 -686 106 -101 37 -126 38 -157 6 -59 -58 -20 -111 120
-161 513 -183 1103 -144 1572 102 189 99 303 180 475 337 l116 107 4 -140 c3
-129 5 -141 25 -162 30 -30 86 -30 116 0 22 22 22 27 22 283 l0 261 -28 24
c-53 46 -66 39 -246 -140z"/>
</g>
</svg>
