<?xml version="1.0" standalone="no"?>
<!DOCTYPE svg PUBLIC "-//W3C//DTD SVG 20010904//EN"
 "http://www.w3.org/TR/2001/REC-SVG-20010904/DTD/svg10.dtd">
<svg version="1.0" xmlns="http://www.w3.org/2000/svg"
 width="512.000000pt" height="512.000000pt" viewBox="0 0 512.000000 512.000000"
 preserveAspectRatio="xMidYMid meet">

<g transform="translate(0.000000,512.000000) scale(0.100000,-0.100000)"
fill="#000000" stroke="none">
<path d="M1658 5030 c-149 -24 -303 -85 -429 -171 -82 -55 -193 -166 -248
-248 -61 -90 -127 -232 -152 -331 -19 -75 -22 -120 -26 -380 -4 -201 -1 -324
7 -385 42 -308 221 -580 484 -734 l68 -40 -65 -20 c-468 -144 -863 -504 -1053
-958 -51 -122 -89 -261 -134 -487 -35 -174 -33 -203 16 -225 36 -16 3312 -16
3348 0 50 23 51 48 7 271 -22 112 -54 249 -72 304 -127 398 -419 755 -783 956
-89 50 -252 120 -330 142 l-60 18 54 29 c257 140 447 413 495 712 18 111 21
574 4 693 -56 403 -358 738 -754 835 -92 23 -291 33 -377 19z m278 -161 c327
-57 589 -296 674 -612 28 -105 36 -187 19 -187 -19 0 -191 103 -264 159 -33
25 -103 87 -157 138 -129 125 -126 125 -266 -9 -59 -57 -148 -131 -197 -164
-207 -141 -458 -237 -681 -259 -32 -4 -70 -8 -83 -11 l-24 -5 6 133 c9 236 73
395 221 555 131 141 287 228 471 262 70 12 210 13 281 0z m227 -680 c116 -101
228 -176 361 -245 l116 -59 0 -161 c0 -175 -8 -240 -46 -354 -39 -121 -105
-223 -208 -325 -160 -158 -321 -230 -542 -242 -246 -14 -461 71 -639 251 -167
170 -233 326 -242 577 l-5 136 88 6 c327 25 679 178 944 411 47 41 86 75 88
75 2 1 40 -31 85 -70z m-62 -1578 c140 -30 239 -65 374 -132 299 -148 542
-389 689 -684 70 -139 107 -251 145 -438 17 -81 31 -150 31 -152 0 -3 -693 -5
-1540 -5 -973 0 -1540 4 -1540 10 0 28 64 308 85 376 37 115 133 305 206 409
79 111 247 281 355 357 201 143 457 245 699 277 112 16 384 5 496 -18z"/>
<path d="M1368 2038 c-22 -24 -110 -123 -196 -221 l-157 -177 -34 37 c-19 21
-60 66 -91 101 -66 72 -102 81 -145 37 -48 -47 -38 -71 96 -221 67 -74 131
-140 144 -146 13 -6 34 -8 48 -4 15 3 99 89 218 222 284 318 272 302 265 344
-7 42 -38 70 -79 70 -23 0 -40 -10 -69 -42z"/>
</g>
</svg>
