<?xml version="1.0" standalone="no"?>
<!DOCTYPE svg PUBLIC "-//W3C//DTD SVG 20010904//EN"
 "http://www.w3.org/TR/2001/REC-SVG-20010904/DTD/svg10.dtd">
<svg version="1.0" xmlns="http://www.w3.org/2000/svg"
 width="512.000000pt" height="512.000000pt" viewBox="0 0 512.000000 512.000000"
 preserveAspectRatio="xMidYMid meet">

<g transform="translate(0.000000,512.000000) scale(0.100000,-0.100000)"
fill="#000000" stroke="none">
<path d="M260 5031 c-69 -21 -121 -65 -156 -131 -18 -34 -19 -99 -19 -1860 l0
-1825 22 -40 c25 -47 64 -85 113 -111 34 -18 87 -19 1380 -19 l1345 0 41 22
c52 28 97 79 118 134 15 40 16 193 14 1854 -3 1744 -4 1811 -22 1845 -26 49
-64 88 -111 113 l-40 22 -1330 2 c-731 1 -1341 -2 -1355 -6z m2675 -176 l25
-24 0 -1791 0 -1791 -25 -24 -24 -25 -1311 0 -1311 0 -24 25 -25 24 0 1791 0
1791 25 24 24 25 1311 0 1311 0 24 -25z"/>
<path d="M1046 4624 c-170 -41 -318 -179 -378 -351 -20 -59 -23 -87 -23 -208
0 -118 4 -152 23 -215 79 -255 312 -512 616 -680 83 -45 289 -130 317 -130 27
0 212 74 289 116 326 178 560 431 642 694 19 63 23 97 23 215 0 121 -3 149
-23 208 -48 137 -147 249 -276 312 -199 97 -407 59 -582 -107 l-74 -71 -73 69
c-146 139 -310 190 -481 148z m256 -177 c72 -36 137 -94 199 -178 79 -105 121
-106 193 -5 58 81 132 148 204 183 49 24 69 28 142 28 73 0 93 -4 142 -28 77
-38 144 -107 182 -187 27 -57 31 -78 34 -170 4 -120 -11 -197 -60 -294 -107
-215 -307 -395 -586 -529 -141 -68 -163 -68 -305 0 -285 137 -485 321 -592
544 -45 95 -58 162 -53 283 4 110 27 179 85 251 99 125 279 169 415 102z"/>
<path d="M423 2774 c-21 -21 -24 -32 -20 -62 12 -72 -68 -67 993 -70 l955 -2
24 24 c33 33 33 79 0 111 l-24 25 -951 0 -951 0 -26 -26z"/>
<path d="M423 2374 c-21 -21 -24 -32 -20 -62 12 -72 -68 -67 993 -70 l955 -2
24 24 c33 33 33 79 0 111 l-24 25 -951 0 -951 0 -26 -26z"/>
<path d="M824 1974 c-22 -21 -25 -32 -21 -62 12 -72 -68 -67 991 -70 925 -2
954 -2 977 17 30 24 33 91 6 118 -17 17 -76 18 -973 21 l-955 2 -25 -26z"/>
<path d="M823 1574 c-21 -21 -24 -32 -20 -62 12 -72 -68 -67 993 -70 l955 -2
24 24 c33 33 33 79 0 111 l-24 25 -951 0 -951 0 -26 -26z"/>
</g>
</svg>
